REM DIRINDEX 1\2\6,1\2\7,1\2\8,1\2\9,1\3\10,1\3\11,1\4\12,1\4\13,1\4\14,1\5\15,1\5\16,1\5\17
REM DIRNAME folder01,folder02,folder03,folder04,folder05,folder06,folder07,folder08,folder09,folder10,folder11,folder12,folder13,folder14,folder15,folder16,folder17
TITLE ""
FILE "1900_2_sec14_1333_1349.mp3" MP3
  TRACK 01 AUDIO
    TITLE "0:"
    INDEX 01 00:00:00
  TRACK 02 AUDIO
    TITLE "13:cjc020_4806"
    INDEX 01 00:00:17
  TRACK 03 AUDIO
    TITLE "0:"
    INDEX 01 00:01:34
  TRACK 04 AUDIO
    TITLE "14:cjc020_4807"
    INDEX 01 00:01:38
  TRACK 05 AUDIO
    TITLE "0:"
    INDEX 01 00:02:45
  TRACK 06 AUDIO
    TITLE "13:cjc020_4808"
    INDEX 01 00:03:25
  TRACK 07 AUDIO
    TITLE "0:"
    INDEX 01 00:04:36
  TRACK 08 AUDIO
    TITLE "14:cjc020_4809"
    INDEX 01 00:04:42
  TRACK 09 AUDIO
    TITLE "0:"
    INDEX 01 00:07:17
  TRACK 10 AUDIO
    TITLE "13:cjc020_4810"
    INDEX 01 00:08:01
  TRACK 11 AUDIO
    TITLE "0:"
    INDEX 01 00:09:06
  TRACK 12 AUDIO
    TITLE "14:cjc020_4811"
    INDEX 01 00:09:14
  TRACK 13 AUDIO
    TITLE "0:"
    INDEX 01 00:11:48
  TRACK 14 AUDIO
    TITLE "13:cjc020_4812"
    INDEX 01 00:12:32
  TRACK 15 AUDIO
    TITLE "0:"
    INDEX 01 00:13:28
  TRACK 16 AUDIO
    TITLE "14:cjc020_4813"
    INDEX 01 00:13:33
  TRACK 17 AUDIO
    TITLE "0:"
    INDEX 01 00:14:66
  TRACK 18 AUDIO
    TITLE "13:cjc020_4814"
    INDEX 01 00:15:46
  TRACK 19 AUDIO
    TITLE "0:"
    INDEX 01 00:16:49
  TRACK 20 AUDIO
    TITLE "14:cjc020_4815"
    INDEX 01 00:16:51
  TRACK 21 AUDIO
    TITLE "0:"
    INDEX 01 00:19:36
  TRACK 22 AUDIO
    TITLE "13:cjc020_4816"
    INDEX 01 00:20:16
  TRACK 23 AUDIO
    TITLE "0:"
    INDEX 01 00:21:21
  TRACK 24 AUDIO
    TITLE "14:cjc020_4817"
    INDEX 01 00:21:23
  TRACK 25 AUDIO
    TITLE "0:"
    INDEX 01 00:24:35
  TRACK 26 AUDIO
    TITLE "13:cjc020_4818"
    INDEX 01 00:25:17
  TRACK 27 AUDIO
    TITLE "0:"
    INDEX 01 00:26:40
  TRACK 28 AUDIO
    TITLE "14:cjc020_4819"
    INDEX 01 00:26:44
  TRACK 29 AUDIO
    TITLE "0:"
    INDEX 01 00:29:52
  TRACK 30 AUDIO
    TITLE "13:cjc020_4820"
    INDEX 01 00:30:34
  TRACK 31 AUDIO
    TITLE "0:"
    INDEX 01 00:31:61
  TRACK 32 AUDIO
    TITLE "14:cjc020_4821"
    INDEX 01 00:31:65
  TRACK 33 AUDIO
    TITLE "0:"
    INDEX 01 00:33:07
  TRACK 34 AUDIO
    TITLE "12:cjc020_4822"
    INDEX 01 00:34:57
  TRACK 35 AUDIO
    TITLE "0:"
    INDEX 01 00:36:05
  TRACK 36 AUDIO
    TITLE "13:cjc020_4823"
    INDEX 01 00:37:08
  TRACK 37 AUDIO
    TITLE "0:"
    INDEX 01 00:38:37
  TRACK 38 AUDIO
    TITLE "14:cjc020_4824"
    INDEX 01 00:38:39
  TRACK 39 AUDIO
    TITLE "0:"
    INDEX 01 00:39:52
  TRACK 40 AUDIO
    TITLE "13:cjc020_4825"
    INDEX 01 00:40:34
  TRACK 41 AUDIO
    TITLE "0:"
    INDEX 01 00:41:45
  TRACK 42 AUDIO
    TITLE "14:cjc020_4826"
    INDEX 01 00:41:49
  TRACK 43 AUDIO
    TITLE "0:"
    INDEX 01 00:42:51
  TRACK 44 AUDIO
    TITLE "13:cjc020_4827"
    INDEX 01 00:43:29
  TRACK 45 AUDIO
    TITLE "0:"
    INDEX 01 00:44:42
  TRACK 46 AUDIO
    TITLE "14:cjc020_4828"
    INDEX 01 00:44:48
  TRACK 47 AUDIO
    TITLE "0:"
    INDEX 01 00:47:07
  TRACK 48 AUDIO
    TITLE "13:cjc020_4829"
    INDEX 01 00:47:58
  TRACK 49 AUDIO
    TITLE "0:"
    INDEX 01 00:49:23
  TRACK 50 AUDIO
    TITLE "14:cjc020_4830"
    INDEX 01 00:49:25
  TRACK 51 AUDIO
    TITLE "0:"
    INDEX 01 00:53:11
  TRACK 52 AUDIO
    TITLE "13:cjc020_4831"
    INDEX 01 00:53:70
  TRACK 53 AUDIO
    TITLE "0:"
    INDEX 01 00:54:74
  TRACK 54 AUDIO
    TITLE "14:cjc020_4832"
    INDEX 01 00:55:04
  TRACK 55 AUDIO
    TITLE "0:"
    INDEX 01 00:56:12
  TRACK 56 AUDIO
    TITLE "13:cjc020_4833"
    INDEX 01 00:56:71
  TRACK 57 AUDIO
    TITLE "0:"
    INDEX 01 00:58:07
  TRACK 58 AUDIO
    TITLE "14:cjc020_4834"
    INDEX 01 00:58:11
  TRACK 59 AUDIO
    TITLE "0:"
    INDEX 01 01:01:23
  TRACK 60 AUDIO
    TITLE "13:cjc020_4835"
    INDEX 01 01:02:06
  TRACK 61 AUDIO
    TITLE "0:"
    INDEX 01 01:03:00
  TRACK 62 AUDIO
    TITLE "14:cjc020_4836"
    INDEX 01 01:03:04
  TRACK 63 AUDIO
    TITLE "0:"
    INDEX 01 01:07:51
  TRACK 64 AUDIO
    TITLE "13:cjc020_4837"
    INDEX 01 01:08:29
  TRACK 65 AUDIO
    TITLE "0:"
    INDEX 01 01:09:34
  TRACK 66 AUDIO
    TITLE "14:cjc020_4838"
    INDEX 01 01:09:36
  TRACK 67 AUDIO
    TITLE "0:"
    INDEX 01 01:11:39
  TRACK 68 AUDIO
    TITLE "13:cjc020_4839"
    INDEX 01 01:12:19
  TRACK 69 AUDIO
    TITLE "0:"
    INDEX 01 01:13:55
  TRACK 70 AUDIO
    TITLE "14:cjc020_4840"
    INDEX 01 01:13:59
  TRACK 71 AUDIO
    TITLE "0:"
    INDEX 01 01:16:05
